<?xml version="1.0" encoding="UTF-8" standalone="no"?>
<!-- Generator: IcoMoon.io -->

<svg
   xmlns:dc="http://purl.org/dc/elements/1.1/"
   xmlns:cc="http://creativecommons.org/ns#"
   xmlns:rdf="http://www.w3.org/1999/02/22-rdf-syntax-ns#"
   xmlns:svg="http://www.w3.org/2000/svg"
   xmlns="http://www.w3.org/2000/svg"
   xmlns:sodipodi="http://sodipodi.sourceforge.net/DTD/sodipodi-0.dtd"
   xmlns:inkscape="http://www.inkscape.org/namespaces/inkscape"
   width="448"
   height="448"
   viewBox="0 0 448 448"
   data-licenselink="http://scripts.sil.org/cms/scripts/page.php?site_id=nrsi&amp;id=OFL"
   data-license="SIL"
   data-authorlink="https://github.com/davegandy"
   data-author="Dave Gandy"
   id="svg2"
   version="1.1"
   inkscape:version="0.48.2 r9819"
   sodipodi:docname="account.svg">
  <metadata
     id="metadata122">
    <rdf:RDF>
      <cc:Work
         rdf:about="">
        <dc:format>image/svg+xml</dc:format>
        <dc:type
           rdf:resource="http://purl.org/dc/dcmitype/StillImage" />
      </cc:Work>
    </rdf:RDF>
  </metadata>
  <defs
     id="defs120" />
  <sodipodi:namedview
     pagecolor="#ffffff"
     bordercolor="#666666"
     borderopacity="1"
     objecttolerance="10"
     gridtolerance="10"
     guidetolerance="10"
     inkscape:pageopacity="0"
     inkscape:pageshadow="2"
     inkscape:window-width="1092"
     inkscape:window-height="782"
     id="namedview118"
     showgrid="false"
     inkscape:zoom="0.52678571"
     inkscape:cx="-14.237288"
     inkscape:cy="224"
     inkscape:window-x="1756"
     inkscape:window-y="200"
     inkscape:window-maximized="0"
     inkscape:current-layer="svg2" />
  <g
     id="g4">
    <line
       x1="16"
       x2="16"
       y1="0"
       y2="448"
       stroke="#B35047"
       id="line6" />
    <line
       x1="32"
       x2="32"
       y1="0"
       y2="448"
       stroke="#B35047"
       id="line8" />
    <line
       x1="48"
       x2="48"
       y1="0"
       y2="448"
       stroke="#B35047"
       id="line10" />
    <line
       x1="64"
       x2="64"
       y1="0"
       y2="448"
       stroke="#B35047"
       id="line12" />
    <line
       x1="80"
       x2="80"
       y1="0"
       y2="448"
       stroke="#B35047"
       id="line14" />
    <line
       x1="96"
       x2="96"
       y1="0"
       y2="448"
       stroke="#B35047"
       id="line16" />
    <line
       x1="112"
       x2="112"
       y1="0"
       y2="448"
       stroke="#B35047"
       id="line18" />
    <line
       x1="128"
       x2="128"
       y1="0"
       y2="448"
       stroke="#B35047"
       id="line20" />
    <line
       x1="144"
       x2="144"
       y1="0"
       y2="448"
       stroke="#B35047"
       id="line22" />
    <line
       x1="160"
       x2="160"
       y1="0"
       y2="448"
       stroke="#B35047"
       id="line24" />
    <line
       x1="176"
       x2="176"
       y1="0"
       y2="448"
       stroke="#B35047"
       id="line26" />
    <line
       x1="192"
       x2="192"
       y1="0"
       y2="448"
       stroke="#B35047"
       id="line28" />
    <line
       x1="208"
       x2="208"
       y1="0"
       y2="448"
       stroke="#B35047"
       id="line30" />
    <line
       x1="224"
       x2="224"
       y1="0"
       y2="448"
       stroke="#B35047"
       id="line32" />
    <line
       x1="240"
       x2="240"
       y1="0"
       y2="448"
       stroke="#B35047"
       id="line34" />
    <line
       x1="256"
       x2="256"
       y1="0"
       y2="448"
       stroke="#B35047"
       id="line36" />
    <line
       x1="272"
       x2="272"
       y1="0"
       y2="448"
       stroke="#B35047"
       id="line38" />
    <line
       x1="288"
       x2="288"
       y1="0"
       y2="448"
       stroke="#B35047"
       id="line40" />
    <line
       x1="304"
       x2="304"
       y1="0"
       y2="448"
       stroke="#B35047"
       id="line42" />
    <line
       x1="320"
       x2="320"
       y1="0"
       y2="448"
       stroke="#B35047"
       id="line44" />
    <line
       x1="336"
       x2="336"
       y1="0"
       y2="448"
       stroke="#B35047"
       id="line46" />
    <line
       x1="352"
       x2="352"
       y1="0"
       y2="448"
       stroke="#B35047"
       id="line48" />
    <line
       x1="368"
       x2="368"
       y1="0"
       y2="448"
       stroke="#B35047"
       id="line50" />
    <line
       x1="384"
       x2="384"
       y1="0"
       y2="448"
       stroke="#B35047"
       id="line52" />
    <line
       x1="400"
       x2="400"
       y1="0"
       y2="448"
       stroke="#B35047"
       id="line54" />
    <line
       x1="416"
       x2="416"
       y1="0"
       y2="448"
       stroke="#B35047"
       id="line56" />
    <line
       x1="432"
       x2="432"
       y1="0"
       y2="448"
       stroke="#B35047"
       id="line58" />
    <line
       x1="0"
       x2="448"
       y1="16"
       y2="16"
       stroke="#B35047"
       id="line60" />
    <line
       x1="0"
       x2="448"
       y1="32"
       y2="32"
       stroke="#B35047"
       id="line62" />
    <line
       x1="0"
       x2="448"
       y1="48"
       y2="48"
       stroke="#B35047"
       id="line64" />
    <line
       x1="0"
       x2="448"
       y1="64"
       y2="64"
       stroke="#B35047"
       id="line66" />
    <line
       x1="0"
       x2="448"
       y1="80"
       y2="80"
       stroke="#B35047"
       id="line68" />
    <line
       x1="0"
       x2="448"
       y1="96"
       y2="96"
       stroke="#B35047"
       id="line70" />
    <line
       x1="0"
       x2="448"
       y1="112"
       y2="112"
       stroke="#B35047"
       id="line72" />
    <line
       x1="0"
       x2="448"
       y1="128"
       y2="128"
       stroke="#B35047"
       id="line74" />
    <line
       x1="0"
       x2="448"
       y1="144"
       y2="144"
       stroke="#B35047"
       id="line76" />
    <line
       x1="0"
       x2="448"
       y1="160"
       y2="160"
       stroke="#B35047"
       id="line78" />
    <line
       x1="0"
       x2="448"
       y1="176"
       y2="176"
       stroke="#B35047"
       id="line80" />
    <line
       x1="0"
       x2="448"
       y1="192"
       y2="192"
       stroke="#B35047"
       id="line82" />
    <line
       x1="0"
       x2="448"
       y1="208"
       y2="208"
       stroke="#B35047"
       id="line84" />
    <line
       x1="0"
       x2="448"
       y1="224"
       y2="224"
       stroke="#B35047"
       id="line86" />
    <line
       x1="0"
       x2="448"
       y1="240"
       y2="240"
       stroke="#B35047"
       id="line88" />
    <line
       x1="0"
       x2="448"
       y1="256"
       y2="256"
       stroke="#B35047"
       id="line90" />
    <line
       x1="0"
       x2="448"
       y1="272"
       y2="272"
       stroke="#B35047"
       id="line92" />
    <line
       x1="0"
       x2="448"
       y1="288"
       y2="288"
       stroke="#B35047"
       id="line94" />
    <line
       x1="0"
       x2="448"
       y1="304"
       y2="304"
       stroke="#B35047"
       id="line96" />
    <line
       x1="0"
       x2="448"
       y1="320"
       y2="320"
       stroke="#B35047"
       id="line98" />
    <line
       x1="0"
       x2="448"
       y1="336"
       y2="336"
       stroke="#B35047"
       id="line100" />
    <line
       x1="0"
       x2="448"
       y1="352"
       y2="352"
       stroke="#B35047"
       id="line102" />
    <line
       x1="0"
       x2="448"
       y1="368"
       y2="368"
       stroke="#B35047"
       id="line104" />
    <line
       x1="0"
       x2="448"
       y1="384"
       y2="384"
       stroke="#B35047"
       id="line106" />
    <line
       x1="0"
       x2="448"
       y1="400"
       y2="400"
       stroke="#B35047"
       id="line108" />
    <line
       x1="0"
       x2="448"
       y1="416"
       y2="416"
       stroke="#B35047"
       id="line110" />
    <line
       x1="0"
       x2="448"
       y1="432"
       y2="432"
       stroke="#B35047"
       id="line112" />
    <rect
       x="0"
       y="0"
       width="448"
       height="448"
       fill="none"
       stroke="#B35047"
       id="rect114" />
  </g>
  <g
     style="font-size:462.83456421px;font-style:normal;font-variant:normal;font-weight:500;font-stretch:normal;line-height:125%;letter-spacing:0px;word-spacing:0px;fill:#000000;fill-opacity:1;stroke:none;font-family:Futura;-inkscape-font-specification:Futura Medium"
     id="text3099"
     transform="translate(111.22928,0.41149467)">
    <path
       d="m 141.47189,-0.82297935 0,44.29471435 c 17.77797,2.862935 32.31686,8.738758 43.61674,17.627488 11.29945,8.889403 22.07179,22.524327 32.31706,40.904817 l -44.06872,24.63328 C 160.0785,102.53165 142.75235,90.478677 121.35848,90.47837 c -13.25842,3.07e-4 -24.256756,3.917523 -32.995045,11.75166 -8.738519,7.83473 -13.107722,17.62777 -13.10762,29.37915 -1.02e-4,10.69727 3.540459,19.58634 10.621692,26.66722 6.930346,6.9307 20.941923,15.14179 42.034783,24.63329 18.22996,8.28663 33.29618,16.12106 45.19868,23.50331 11.90211,7.23198 20.86651,14.23777 26.89322,21.01739 17.0246,18.38096 25.53701,40.60362 25.53726,66.66807 -2.5e-4,25.61267 -7.68402,48.21199 -23.05133,67.79803 -15.2171,19.43545 -35.55649,32.54306 -61.01823,39.32286 l 0,46.78064 -39.54885,0 0,-45.42468 C 72.393133,397.75412 49.869142,387.58442 34.351003,372.0662 18.832741,356.54802 7.3824183,332.59274 -2.5331974e-7,300.20028 L 49.718556,289.80458 c 6.779721,22.90076 15.066139,39.2476 24.859279,49.04058 10.244924,9.34111 23.879848,14.01164 40.904815,14.01159 16.57269,5e-5 30.43361,-5.34846 41.58279,-16.04553 10.99815,-10.54629 16.49732,-24.18121 16.49752,-40.90481 -2e-4,-14.91545 -4.59539,-26.89309 -13.7856,-35.93296 -4.67071,-4.36906 -11.60117,-9.26558 -20.79139,-14.68957 -9.0399,-5.57435 -20.64088,-11.60084 -34.80299,-18.07948 C 74.954389,214.09697 55.744966,202.04399 46.554648,191.04545 31.940347,174.62348 24.633234,154.96207 24.633285,132.06116 c -5.1e-5,-10.84741 1.732563,-20.94177 5.197849,-30.28312 3.465173,-9.340755 8.437023,-17.777835 14.915567,-25.311263 6.629063,-7.683448 14.764819,-14.312582 24.407291,-19.887423 9.642282,-5.574158 20.565287,-9.94336 32.769048,-13.107619 l 0,-44.29471435 39.54885,0"
       id="path3104"
       inkscape:connector-curvature="0" />
  </g>
</svg>
