<?xml version="1.0" encoding="UTF-8" standalone="no"?>
<!-- Created with Inkscape (http://www.inkscape.org/) -->

<svg
   xmlns:dc="http://purl.org/dc/elements/1.1/"
   xmlns:cc="http://creativecommons.org/ns#"
   xmlns:rdf="http://www.w3.org/1999/02/22-rdf-syntax-ns#"
   xmlns:svg="http://www.w3.org/2000/svg"
   xmlns="http://www.w3.org/2000/svg"
   xmlns:sodipodi="http://sodipodi.sourceforge.net/DTD/sodipodi-0.dtd"
   xmlns:inkscape="http://www.inkscape.org/namespaces/inkscape"
   width="64px"
   height="64px"
   id="svg3069"
   version="1.1"
   inkscape:version="0.48.2 r9819"
   sodipodi:docname="motorbike.svg">
  <defs
     id="defs3071" />
  <sodipodi:namedview
     id="base"
     pagecolor="#ffffff"
     bordercolor="#666666"
     borderopacity="1.0"
     inkscape:pageopacity="0.0"
     inkscape:pageshadow="2"
     inkscape:zoom="5.5"
     inkscape:cx="37.972023"
     inkscape:cy="23.058972"
     inkscape:current-layer="layer2"
     showgrid="true"
     inkscape:document-units="px"
     inkscape:grid-bbox="true"
     inkscape:window-width="995"
     inkscape:window-height="817"
     inkscape:window-x="2008"
     inkscape:window-y="195"
     inkscape:window-maximized="0" />
  <metadata
     id="metadata3074">
    <rdf:RDF>
      <cc:Work
         rdf:about="">
        <dc:format>image/svg+xml</dc:format>
        <dc:type
           rdf:resource="http://purl.org/dc/dcmitype/StillImage" />
        <dc:title />
      </cc:Work>
    </rdf:RDF>
  </metadata>
  <g
     inkscape:groupmode="layer"
     id="layer2"
     inkscape:label="Layer"
     style="opacity:0.96">
    <g
       id="g2985"
       transform="matrix(1.072984,0,0,1.072984,-2.7256644,-3.2133842)">
      <path
         transform="translate(-2.5454545,-2.545456)"
         d="m 22.363637,43.909092 c 0,4.769732 -3.866632,8.636364 -8.636364,8.636364 -4.7697321,0 -8.636364,-3.866632 -8.636364,-8.636364 0,-4.769732 3.8666319,-8.636364 8.636364,-8.636364 4.769732,0 8.636364,3.866632 8.636364,8.636364 z"
         sodipodi:ry="8.636364"
         sodipodi:rx="8.636364"
         sodipodi:cy="43.909092"
         sodipodi:cx="13.727273"
         id="path3953"
         style="fill:#000000;fill-opacity:1;stroke:none"
         sodipodi:type="arc" />
      <path
         sodipodi:type="arc"
         style="fill:#000000;fill-opacity:1;stroke:none"
         id="path3988"
         sodipodi:cx="13.727273"
         sodipodi:cy="43.909092"
         sodipodi:rx="8.636364"
         sodipodi:ry="8.636364"
         d="m 22.363637,43.909092 c 0,4.769732 -3.866632,8.636364 -8.636364,8.636364 -4.7697321,0 -8.636364,-3.866632 -8.636364,-8.636364 0,-4.769732 3.8666319,-8.636364 8.636364,-8.636364 4.769732,0 8.636364,3.866632 8.636364,8.636364 z"
         transform="translate(39.818182,-2.545456)" />
      <path
         sodipodi:nodetypes="csccscsccczcacsc"
         inkscape:connector-curvature="0"
         id="path3992"
         d="m 6.470143,31.230503 c 0,0 -0.8376048,-4.697145 2.753399,-9.222414 3.804884,-4.794794 9.321913,-6.371725 9.321913,-6.371725 l 0.33244,4.598707 c 0,0 7.932978,-1.315072 10.598275,1.402577 1.876756,1.91362 0.663424,4.779242 0.663424,4.779242 0,0 2.288713,0.242415 3.56562,0.0197 1.798651,-0.313722 5.332442,-2.030725 5.332442,-2.030725 l 14.235071,-1.678588 3.904523,5.518827 c 0,0 -9.380142,0.511317 -12.281728,5.909765 -2.901586,5.398449 -3.161788,13.790881 -3.161788,13.790881 0,0 -7.833703,-1.492156 -11.790155,-1.39783 -3.666741,0.08742 -10.85267,1.81472 -10.85267,1.81472 0,0 4.544599,-7.425418 0.561393,-13.682338 C 16.660282,29.981359 6.470143,31.230503 6.470143,31.230503 z"
         style="fill:#000000;fill-opacity:1;stroke:none" />
    </g>
  </g>
</svg>
